<svg width="222" height="30" viewBox="0 0 222 30" fill="none" xmlns="http://www.w3.org/2000/svg">
<path d="M7.4 24C7.77333 24.1067 8.25333 24.1867 8.84 24.24C9.42667 24.2667 9.98667 24.28 10.52 24.28C11.5867 24.28 12.4667 24.0667 13.16 23.64C13.88 23.1867 14.24 22.4933 14.24 21.56C14.24 20.68 13.9467 20.0533 13.36 19.68C12.7733 19.3067 11.88 19.12 10.68 19.12H7.4V24ZM7.4 14.24H10.32C11.4667 14.24 12.2933 14.0267 12.8 13.6C13.3333 13.1733 13.6 12.5467 13.6 11.72C13.6 11 13.2933 10.4267 12.68 10C12.0933 9.57333 11.2 9.36 10 9.36C9.6 9.36 9.13333 9.37333 8.6 9.4C8.09333 9.42667 7.69333 9.46667 7.4 9.52V14.24ZM10 29.64C9.54667 29.64 9.01333 29.6267 8.4 29.6C7.78667 29.5733 7.14667 29.52 6.48 29.44C5.84 29.36 5.2 29.2533 4.56 29.12C3.92 29.0133 3.33333 28.8533 2.8 28.64C1.33333 28.08 0.6 27.1067 0.6 25.72V7.04C0.6 6.48 0.746667 6.05333 1.04 5.76C1.36 5.44 1.78667 5.18666 2.32 5C3.22667 4.68 4.36 4.45333 5.72 4.32C7.08 4.16 8.48 4.08 9.92 4.08C13.3333 4.08 15.96 4.65333 17.8 5.8C19.64 6.94667 20.56 8.72 20.56 11.12C20.56 12.32 20.2133 13.36 19.52 14.24C18.8267 15.0933 17.8933 15.72 16.72 16.12C18.0533 16.4933 19.16 17.1733 20.04 18.16C20.9467 19.1467 21.4 20.3867 21.4 21.88C21.4 24.52 20.4133 26.48 18.44 27.76C16.4933 29.0133 13.68 29.64 10 29.64ZM24.6856 4.16C24.6856 3.14666 25.019 2.29333 25.6856 1.6C26.379 0.906665 27.2856 0.559999 28.4056 0.559999C29.5256 0.559999 30.419 0.906665 31.0856 1.6C31.779 2.29333 32.1256 3.14666 32.1256 4.16C32.1256 5.17333 31.779 6.02667 31.0856 6.72C30.419 7.41333 29.5256 7.76 28.4056 7.76C27.2856 7.76 26.379 7.41333 25.6856 6.72C25.019 6.02667 24.6856 5.17333 24.6856 4.16ZM31.8056 28.96C31.5123 29.0133 31.0723 29.08 30.4856 29.16C29.9256 29.2667 29.3523 29.32 28.7656 29.32C28.179 29.32 27.6456 29.28 27.1656 29.2C26.7123 29.12 26.3256 28.96 26.0056 28.72C25.6856 28.48 25.4323 28.16 25.2456 27.76C25.0856 27.3333 25.0056 26.7867 25.0056 26.12V9.84C25.299 9.78667 25.7256 9.72 26.2856 9.64C26.8723 9.53333 27.459 9.48 28.0456 9.48C28.6323 9.48 29.1523 9.52 29.6056 9.6C30.0856 9.68 30.4856 9.84 30.8056 10.08C31.1256 10.32 31.3656 10.6533 31.5256 11.08C31.7123 11.48 31.8056 12.0133 31.8056 12.68V28.96ZM55.1347 25.48C55.0014 26.7333 54.628 27.6933 54.0147 28.36C53.428 29.0267 52.5614 29.36 51.4147 29.36C50.5614 29.36 49.8014 29.16 49.1347 28.76C48.468 28.3333 47.748 27.6267 46.9747 26.64L43.0147 21.68V28.96C42.7214 29.0133 42.2814 29.08 41.6947 29.16C41.1347 29.2667 40.5614 29.32 39.9747 29.32C39.388 29.32 38.8547 29.28 38.3747 29.2C37.9214 29.12 37.5347 28.96 37.2147 28.72C36.8947 28.48 36.6414 28.16 36.4547 27.76C36.2947 27.3333 36.2147 26.7867 36.2147 26.12V2.96C36.508 2.88 36.9347 2.8 37.4947 2.72C38.0814 2.61333 38.668 2.56 39.2547 2.56C39.8414 2.56 40.3614 2.6 40.8147 2.68C41.2947 2.76 41.6947 2.92 42.0147 3.16C42.3347 3.4 42.5747 3.73333 42.7347 4.16C42.9214 4.56 43.0147 5.09333 43.0147 5.76V16.32L49.8947 9.28C51.2814 9.28 52.388 9.58667 53.2147 10.2C54.068 10.8133 54.4947 11.5867 54.4947 12.52C54.4947 12.92 54.428 13.2933 54.2947 13.64C54.1614 13.96 53.948 14.2933 53.6547 14.64C53.388 14.9867 53.028 15.36 52.5747 15.76C52.148 16.1333 51.6414 16.5733 51.0547 17.08L48.7347 19.08L55.1347 25.48ZM67.7038 29.64C66.1304 29.64 64.6638 29.4267 63.3038 29C61.9704 28.5467 60.7971 27.88 59.7838 27C58.7971 26.12 58.0104 25.0133 57.4238 23.68C56.8638 22.3467 56.5838 20.7867 56.5838 19C56.5838 17.24 56.8638 15.7333 57.4238 14.48C58.0104 13.2 58.7704 12.16 59.7038 11.36C60.6371 10.5333 61.7038 9.93333 62.9038 9.56C64.1038 9.16 65.3304 8.96 66.5838 8.96C67.9971 8.96 69.2771 9.17333 70.4238 9.6C71.5971 10.0267 72.5971 10.6133 73.4238 11.36C74.2771 12.1067 74.9304 13 75.3838 14.04C75.8638 15.08 76.1038 16.2133 76.1038 17.44C76.1038 18.3467 75.8504 19.04 75.3438 19.52C74.8371 20 74.1304 20.3067 73.2238 20.44L63.3438 21.92C63.6371 22.8 64.2371 23.4667 65.1438 23.92C66.0504 24.3467 67.0904 24.56 68.2638 24.56C69.3571 24.56 70.3838 24.4267 71.3438 24.16C72.3304 23.8667 73.1304 23.5333 73.7438 23.16C74.1704 23.4267 74.5304 23.8 74.8238 24.28C75.1171 24.76 75.2638 25.2667 75.2638 25.8C75.2638 27 74.7038 27.8933 73.5838 28.48C72.7304 28.9333 71.7704 29.24 70.7038 29.4C69.6371 29.56 68.6371 29.64 67.7038 29.64ZM66.5838 13.92C65.9438 13.92 65.3838 14.0267 64.9038 14.24C64.4504 14.4533 64.0771 14.7333 63.7838 15.08C63.4904 15.4 63.2638 15.7733 63.1038 16.2C62.9704 16.6 62.8904 17.0133 62.8638 17.44L69.7038 16.32C69.6238 15.7867 69.3304 15.2533 68.8238 14.72C68.3171 14.1867 67.5704 13.92 66.5838 13.92ZM94.8647 21.16V28.84C94.5714 28.92 94.1047 29 93.4647 29.08C92.8514 29.16 92.238 29.2 91.6247 29.2C91.0114 29.2 90.4647 29.1467 89.9847 29.04C89.5314 28.96 89.1447 28.8 88.8247 28.56C88.5314 28.32 88.3047 27.9867 88.1447 27.56C87.9847 27.1333 87.9047 26.5733 87.9047 25.88V7.04C87.9047 6.48 88.0514 6.05333 88.3447 5.76C88.6647 5.44 89.0914 5.18666 89.6247 5C90.5314 4.68 91.5847 4.45333 92.7847 4.32C93.9847 4.16 95.2647 4.08 96.6247 4.08C100.305 4.08 103.078 4.85333 104.945 6.4C106.811 7.94667 107.745 10.04 107.745 12.68C107.745 14.3333 107.318 15.7467 106.465 16.92C105.611 18.0933 104.598 19 103.425 19.64C104.385 20.9467 105.331 22.1733 106.265 23.32C107.198 24.4667 107.931 25.5067 108.465 26.44C108.198 27.3733 107.705 28.0933 106.985 28.6C106.291 29.08 105.505 29.32 104.625 29.32C104.038 29.32 103.531 29.2533 103.105 29.12C102.678 28.9867 102.305 28.8 101.985 28.56C101.665 28.32 101.371 28.0267 101.105 27.68C100.838 27.3333 100.585 26.96 100.345 26.56L96.9847 21.16H94.8647ZM97.3847 15.84C98.398 15.84 99.198 15.5867 99.7847 15.08C100.371 14.5467 100.665 13.7733 100.665 12.76C100.665 11.7467 100.331 10.9867 99.6647 10.48C99.0247 9.94667 97.998 9.68 96.5847 9.68C96.1847 9.68 95.8647 9.69333 95.6247 9.72C95.3847 9.74667 95.118 9.78667 94.8247 9.84V15.84H97.3847ZM121.454 29.64C119.88 29.64 118.414 29.4267 117.054 29C115.72 28.5467 114.547 27.88 113.534 27C112.547 26.12 111.76 25.0133 111.174 23.68C110.614 22.3467 110.334 20.7867 110.334 19C110.334 17.24 110.614 15.7333 111.174 14.48C111.76 13.2 112.52 12.16 113.454 11.36C114.387 10.5333 115.454 9.93333 116.654 9.56C117.854 9.16 119.08 8.96 120.334 8.96C121.747 8.96 123.027 9.17333 124.174 9.6C125.347 10.0267 126.347 10.6133 127.174 11.36C128.027 12.1067 128.68 13 129.134 14.04C129.614 15.08 129.854 16.2133 129.854 17.44C129.854 18.3467 129.6 19.04 129.094 19.52C128.587 20 127.88 20.3067 126.974 20.44L117.094 21.92C117.387 22.8 117.987 23.4667 118.894 23.92C119.8 24.3467 120.84 24.56 122.014 24.56C123.107 24.56 124.134 24.4267 125.094 24.16C126.08 23.8667 126.88 23.5333 127.494 23.16C127.92 23.4267 128.28 23.8 128.574 24.28C128.867 24.76 129.014 25.2667 129.014 25.8C129.014 27 128.454 27.8933 127.334 28.48C126.48 28.9333 125.52 29.24 124.454 29.4C123.387 29.56 122.387 29.64 121.454 29.64ZM120.334 13.92C119.694 13.92 119.134 14.0267 118.654 14.24C118.2 14.4533 117.827 14.7333 117.534 15.08C117.24 15.4 117.014 15.7733 116.854 16.2C116.72 16.6 116.64 17.0133 116.614 17.44L123.454 16.32C123.374 15.7867 123.08 15.2533 122.574 14.72C122.067 14.1867 121.32 13.92 120.334 13.92ZM145.447 16.68C145.447 15.8533 145.207 15.2533 144.727 14.88C144.274 14.48 143.647 14.28 142.847 14.28C142.314 14.28 141.78 14.3467 141.247 14.48C140.74 14.6133 140.3 14.8133 139.927 15.08V28.96C139.66 29.04 139.234 29.12 138.647 29.2C138.087 29.28 137.5 29.32 136.887 29.32C136.3 29.32 135.767 29.28 135.287 29.2C134.834 29.12 134.447 28.96 134.127 28.72C133.807 28.48 133.554 28.16 133.367 27.76C133.207 27.3333 133.127 26.7867 133.127 26.12V14.12C133.127 13.4 133.274 12.8133 133.567 12.36C133.887 11.9067 134.314 11.4933 134.847 11.12C135.754 10.48 136.887 9.96 138.247 9.56C139.634 9.16 141.167 8.96 142.847 8.96C145.86 8.96 148.18 9.62666 149.807 10.96C151.434 12.2667 152.247 14.0933 152.247 16.44V28.96C151.98 29.04 151.554 29.12 150.967 29.2C150.407 29.28 149.82 29.32 149.207 29.32C148.62 29.32 148.087 29.28 147.607 29.2C147.154 29.12 146.767 28.96 146.447 28.72C146.127 28.48 145.874 28.16 145.687 27.76C145.527 27.3333 145.447 26.7867 145.447 26.12V16.68ZM163.247 22.32C163.247 23.0133 163.461 23.5067 163.887 23.8C164.341 24.0933 164.967 24.24 165.767 24.24C166.167 24.24 166.581 24.2133 167.007 24.16C167.434 24.08 167.807 23.9867 168.127 23.88C168.367 24.1733 168.567 24.5067 168.727 24.88C168.914 25.2267 169.007 25.6533 169.007 26.16C169.007 27.1733 168.621 28 167.847 28.64C167.101 29.28 165.767 29.6 163.847 29.6C161.501 29.6 159.687 29.0667 158.407 28C157.154 26.9333 156.527 25.2 156.527 22.8V5.68C156.821 5.6 157.234 5.52 157.767 5.44C158.327 5.33333 158.914 5.28 159.527 5.28C160.701 5.28 161.607 5.49333 162.247 5.92C162.914 6.32 163.247 7.18667 163.247 8.52V11.08H168.487C168.647 11.3733 168.794 11.7467 168.927 12.2C169.087 12.6267 169.167 13.1067 169.167 13.64C169.167 14.5733 168.954 15.2533 168.527 15.68C168.127 16.08 167.581 16.28 166.887 16.28H163.247V22.32ZM180.783 24.68C181.236 24.68 181.729 24.64 182.263 24.56C182.823 24.4533 183.236 24.32 183.503 24.16V20.96L180.623 21.2C179.876 21.2533 179.263 21.4133 178.783 21.68C178.303 21.9467 178.063 22.3467 178.063 22.88C178.063 23.4133 178.263 23.8533 178.663 24.2C179.089 24.52 179.796 24.68 180.783 24.68ZM180.463 8.96C181.903 8.96 183.209 9.10667 184.383 9.4C185.583 9.69333 186.596 10.1467 187.423 10.76C188.276 11.3467 188.929 12.1067 189.383 13.04C189.836 13.9467 190.063 15.0267 190.063 16.28V25.24C190.063 25.9333 189.863 26.5067 189.463 26.96C189.089 27.3867 188.636 27.76 188.103 28.08C186.369 29.12 183.929 29.64 180.783 29.64C179.369 29.64 178.089 29.5067 176.943 29.24C175.823 28.9733 174.849 28.5733 174.023 28.04C173.223 27.5067 172.596 26.8267 172.143 26C171.716 25.1733 171.503 24.2133 171.503 23.12C171.503 21.28 172.049 19.8667 173.143 18.88C174.236 17.8933 175.929 17.28 178.223 17.04L183.463 16.48V16.2C183.463 15.4267 183.116 14.88 182.423 14.56C181.756 14.2133 180.783 14.04 179.503 14.04C178.489 14.04 177.503 14.1467 176.543 14.36C175.583 14.5733 174.716 14.84 173.943 15.16C173.596 14.92 173.303 14.56 173.063 14.08C172.823 13.5733 172.703 13.0533 172.703 12.52C172.703 11.8267 172.863 11.28 173.183 10.88C173.529 10.4533 174.049 10.0933 174.743 9.8C175.516 9.50667 176.423 9.29333 177.463 9.16C178.529 9.02667 179.529 8.96 180.463 8.96ZM201.141 28.96C200.847 29.0133 200.407 29.08 199.821 29.16C199.261 29.2667 198.687 29.32 198.101 29.32C197.514 29.32 196.981 29.28 196.501 29.2C196.047 29.12 195.661 28.96 195.341 28.72C195.021 28.48 194.767 28.16 194.581 27.76C194.421 27.3333 194.341 26.7867 194.341 26.12V2.92C194.634 2.86667 195.061 2.8 195.621 2.72C196.207 2.61333 196.794 2.56 197.381 2.56C197.967 2.56 198.487 2.6 198.941 2.68C199.421 2.76 199.821 2.92 200.141 3.16C200.461 3.4 200.701 3.73333 200.861 4.16C201.047 4.56 201.141 5.09333 201.141 5.76V28.96ZM221.832 23.2C221.832 25.2267 221.072 26.8133 219.552 27.96C218.032 29.1067 215.792 29.68 212.832 29.68C211.712 29.68 210.672 29.6 209.712 29.44C208.752 29.28 207.925 29.04 207.232 28.72C206.565 28.3733 206.032 27.9467 205.632 27.44C205.258 26.9333 205.072 26.3333 205.072 25.64C205.072 25 205.205 24.4667 205.472 24.04C205.738 23.5867 206.058 23.2133 206.432 22.92C207.205 23.3467 208.085 23.7333 209.072 24.08C210.085 24.4 211.245 24.56 212.552 24.56C213.378 24.56 214.005 24.44 214.432 24.2C214.885 23.96 215.112 23.64 215.112 23.24C215.112 22.8667 214.952 22.5733 214.632 22.36C214.312 22.1467 213.778 21.9733 213.032 21.84L211.832 21.6C209.512 21.1467 207.778 20.44 206.632 19.48C205.512 18.4933 204.952 17.0933 204.952 15.28C204.952 14.2933 205.165 13.4 205.592 12.6C206.018 11.8 206.618 11.1333 207.392 10.6C208.165 10.0667 209.085 9.65333 210.152 9.36C211.245 9.06667 212.445 8.92 213.752 8.92C214.738 8.92 215.658 9 216.512 9.16C217.392 9.29333 218.152 9.50667 218.792 9.8C219.432 10.0933 219.938 10.48 220.312 10.96C220.685 11.4133 220.872 11.96 220.872 12.6C220.872 13.2133 220.752 13.7467 220.512 14.2C220.298 14.6267 220.018 14.9867 219.672 15.28C219.458 15.1467 219.138 15.0133 218.712 14.88C218.285 14.72 217.818 14.5867 217.312 14.48C216.805 14.3467 216.285 14.24 215.752 14.16C215.245 14.08 214.778 14.04 214.352 14.04C213.472 14.04 212.792 14.1467 212.312 14.36C211.832 14.5467 211.592 14.8533 211.592 15.28C211.592 15.5733 211.725 15.8133 211.992 16C212.258 16.1867 212.765 16.36 213.512 16.52L214.752 16.8C217.312 17.3867 219.125 18.2 220.192 19.24C221.285 20.2533 221.832 21.5733 221.832 23.2Z" fill="#F68B1E"/>
</svg>
